<svg width="21" height="22" viewBox="0 0 21 22" fill="none" xmlns="http://www.w3.org/2000/svg">
<path d="M19.8117 6.94062C19.6727 6.8006 19.5073 6.68956 19.325 6.61392C19.1428 6.53829 18.9473 6.49957 18.75 6.5H15.75V5.75C15.75 4.35761 15.1969 3.02226 14.2123 2.03769C13.2277 1.05312 11.8924 0.5 10.5 0.5C9.10761 0.5 7.77226 1.05312 6.78769 2.03769C5.80312 3.02226 5.25 4.35761 5.25 5.75V6.5H2.25C1.85218 6.5 1.47064 6.65804 1.18934 6.93934C0.908035 7.22064 0.75 7.60218 0.75 8V18.125C0.75 19.9531 2.29688 21.5 4.125 21.5H16.875C17.7593 21.5003 18.6086 21.1545 19.2413 20.5367C19.5596 20.233 19.8132 19.8679 19.9865 19.4634C20.1599 19.059 20.2495 18.6236 20.25 18.1836V8C20.2506 7.80321 20.2122 7.60826 20.137 7.42642C20.0617 7.24458 19.9512 7.07946 19.8117 6.94062V6.94062ZM6.75 5.75C6.75 4.75544 7.14509 3.80161 7.84835 3.09835C8.55161 2.39509 9.50544 2 10.5 2C11.4946 2 12.4484 2.39509 13.1517 3.09835C13.8549 3.80161 14.25 4.75544 14.25 5.75V6.5H6.75V5.75ZM15.75 10.25C15.75 11.6424 15.1969 12.9777 14.2123 13.9623C13.2277 14.9469 11.8924 15.5 10.5 15.5C9.10761 15.5 7.77226 14.9469 6.78769 13.9623C5.80312 12.9777 5.25 11.6424 5.25 10.25V9.5C5.25 9.30109 5.32902 9.11032 5.46967 8.96967C5.61032 8.82902 5.80109 8.75 6 8.75C6.19891 8.75 6.38968 8.82902 6.53033 8.96967C6.67098 9.11032 6.75 9.30109 6.75 9.5V10.25C6.75 11.2446 7.14509 12.1984 7.84835 12.9017C8.55161 13.6049 9.50544 14 10.5 14C11.4946 14 12.4484 13.6049 13.1517 12.9017C13.8549 12.1984 14.25 11.2446 14.25 10.25V9.5C14.25 9.30109 14.329 9.11032 14.4697 8.96967C14.6103 8.82902 14.8011 8.75 15 8.75C15.1989 8.75 15.3897 8.82902 15.5303 8.96967C15.671 9.11032 15.75 9.30109 15.75 9.5V10.25Z" fill="white"/>
</svg>
