<svg width="15" height="16" viewBox="0 0 15 16" fill="none" xmlns="http://www.w3.org/2000/svg">
<path d="M14.6259 4.95547C14.5215 4.85047 14.3974 4.76721 14.2606 4.71048C14.1239 4.65376 13.9773 4.62471 13.8292 4.625H11.5792V4.0625C11.5792 3.01821 11.1644 2.01669 10.426 1.27827C9.68753 0.539843 8.68601 0.125 7.64172 0.125C6.59743 0.125 5.59592 0.539843 4.85749 1.27827C4.11907 2.01669 3.70422 3.01821 3.70422 4.0625V4.625H1.45422C1.15586 4.625 0.869707 4.74353 0.658728 4.9545C0.44775 5.16548 0.329224 5.45163 0.329224 5.75V13.3438C0.329224 14.7148 1.48938 15.875 2.86047 15.875H12.423C13.0862 15.8752 13.7232 15.6159 14.1977 15.1525C14.4365 14.9247 14.6266 14.6509 14.7566 14.3476C14.8867 14.0442 14.9539 13.7177 14.9542 13.3877V5.75C14.9547 5.60244 14.9259 5.45626 14.8695 5.31989C14.8132 5.18352 14.7304 5.05966 14.6259 4.95547ZM9.89172 10.8125H8.20422V12.5C8.20422 12.6492 8.14496 12.7923 8.03947 12.8977C7.93398 13.0032 7.79091 13.0625 7.64172 13.0625C7.49254 13.0625 7.34947 13.0032 7.24398 12.8977C7.13849 12.7923 7.07922 12.6492 7.07922 12.5V10.8125H5.39172C5.24254 10.8125 5.09947 10.7532 4.99398 10.6477C4.88849 10.5423 4.82922 10.3992 4.82922 10.25C4.82922 10.1008 4.88849 9.95774 4.99398 9.85225C5.09947 9.74676 5.24254 9.6875 5.39172 9.6875H7.07922V8C7.07922 7.85082 7.13849 7.70774 7.24398 7.60225C7.34947 7.49676 7.49254 7.4375 7.64172 7.4375C7.79091 7.4375 7.93398 7.49676 8.03947 7.60225C8.14496 7.70774 8.20422 7.85082 8.20422 8V9.6875H9.89172C10.0409 9.6875 10.184 9.74676 10.2895 9.85225C10.395 9.95774 10.4542 10.1008 10.4542 10.25C10.4542 10.3992 10.395 10.5423 10.2895 10.6477C10.184 10.7532 10.0409 10.8125 9.89172 10.8125ZM10.4542 4.625H4.82922V4.0625C4.82922 3.31658 5.12554 2.60121 5.65299 2.07376C6.18043 1.54632 6.8958 1.25 7.64172 1.25C8.38764 1.25 9.10301 1.54632 9.63046 2.07376C10.1579 2.60121 10.4542 3.31658 10.4542 4.0625V4.625Z" fill="white"/>
</svg>
