<svg width="24" height="25" viewBox="0 0 24 25" fill="none" xmlns="http://www.w3.org/2000/svg">
<path d="M21.3117 8.35292C21.1727 8.2129 21.0073 8.10185 20.825 8.02622C20.6428 7.95058 20.4473 7.91186 20.25 7.91229H17.25V7.16229C17.25 5.76991 16.6969 4.43455 15.7123 3.44998C14.7277 2.46542 13.3924 1.91229 12 1.91229C10.6076 1.91229 9.27226 2.46542 8.28769 3.44998C7.30312 4.43455 6.75 5.76991 6.75 7.16229V7.91229H3.75C3.35218 7.91229 2.97064 8.07033 2.68934 8.35163C2.40804 8.63294 2.25 9.01447 2.25 9.41229V19.5373C2.25 21.3654 3.79688 22.9123 5.625 22.9123H18.375C19.2593 22.9126 20.1086 22.5668 20.7413 21.949C21.0596 21.6453 21.3132 21.2802 21.4865 20.8757C21.6599 20.4713 21.7495 20.0359 21.75 19.5959V9.41229C21.7506 9.21551 21.7122 9.02055 21.637 8.83871C21.5617 8.65687 21.4512 8.49175 21.3117 8.35292ZM8.25 7.16229C8.25 6.16773 8.64509 5.2139 9.34835 4.51064C10.0516 3.80738 11.0054 3.41229 12 3.41229C12.9946 3.41229 13.9484 3.80738 14.6517 4.51064C15.3549 5.2139 15.75 6.16773 15.75 7.16229V7.91229H8.25V7.16229ZM17.25 11.6623C17.25 13.0547 16.6969 14.39 15.7123 15.3746C14.7277 16.3592 13.3924 16.9123 12 16.9123C10.6076 16.9123 9.27226 16.3592 8.28769 15.3746C7.30312 14.39 6.75 13.0547 6.75 11.6623V10.9123C6.75 10.7134 6.82902 10.5226 6.96967 10.382C7.11032 10.2413 7.30109 10.1623 7.5 10.1623C7.69891 10.1623 7.88968 10.2413 8.03033 10.382C8.17098 10.5226 8.25 10.7134 8.25 10.9123V11.6623C8.25 12.6569 8.64509 13.6107 9.34835 14.3139C10.0516 15.0172 11.0054 15.4123 12 15.4123C12.9946 15.4123 13.9484 15.0172 14.6517 14.3139C15.3549 13.6107 15.75 12.6569 15.75 11.6623V10.9123C15.75 10.7134 15.829 10.5226 15.9697 10.382C16.1103 10.2413 16.3011 10.1623 16.5 10.1623C16.6989 10.1623 16.8897 10.2413 17.0303 10.382C17.171 10.5226 17.25 10.7134 17.25 10.9123V11.6623Z" fill="#1A1F16"/>
</svg>
