<svg width="56" height="57" viewBox="0 0 56 57" fill="none" xmlns="http://www.w3.org/2000/svg">
<rect x="8" y="8.29688" width="40" height="40" rx="10" fill="#E5252C"/>
<path d="M23.5 28.2969C23.5 28.098 23.579 27.9072 23.7197 27.7665C23.8603 27.6259 24.0511 27.5469 24.25 27.5469H31V22.6719C31 21.1719 29.4161 20.0469 28 20.0469H20.875C20.179 20.0476 19.5118 20.3244 19.0197 20.8165C18.5275 21.3087 18.2507 21.9759 18.25 22.6719V33.9219C18.2507 34.6178 18.5275 35.2851 19.0197 35.7772C19.5118 36.2693 20.179 36.5461 20.875 36.5469H28.375C29.071 36.5461 29.7382 36.2693 30.2303 35.7772C30.7225 35.2851 30.9993 34.6178 31 33.9219V29.0469H24.25C24.0511 29.0469 23.8603 28.9679 23.7197 28.8272C23.579 28.6866 23.5 28.4958 23.5 28.2969ZM37.5302 27.7667L33.7802 24.0167C33.6384 23.882 33.4495 23.808 33.254 23.8105C33.0584 23.813 32.8715 23.8918 32.7332 24.0301C32.5949 24.1684 32.5161 24.3553 32.5136 24.5509C32.5111 24.7464 32.5851 24.9352 32.7198 25.077L35.1892 27.5469H31V29.0469H35.1892L32.7198 31.5167C32.6473 31.5857 32.5892 31.6685 32.5492 31.7602C32.5091 31.8519 32.4878 31.9508 32.4865 32.0508C32.4852 32.1509 32.504 32.2503 32.5417 32.343C32.5794 32.4358 32.6353 32.52 32.7061 32.5908C32.7769 32.6616 32.8611 32.7175 32.9539 32.7552C33.0466 32.7929 33.1459 32.8117 33.246 32.8104C33.3461 32.8091 33.445 32.7878 33.5367 32.7477C33.6284 32.7076 33.7112 32.6496 33.7802 32.577L37.5302 28.827C37.6707 28.6864 37.7497 28.4957 37.7497 28.2969C37.7497 28.098 37.6707 27.9074 37.5302 27.7667Z" fill="white"/>
</svg>
