<svg width="40" height="41" viewBox="0 0 40 41" fill="none" xmlns="http://www.w3.org/2000/svg">
<rect y="0.412292" width="40" height="40" rx="10" fill="#1A1F16"/>
<path d="M10.6666 28.9837H11.1666C11.2108 28.9837 11.2532 28.9649 11.2845 28.9314C11.3157 28.8979 11.3333 28.8525 11.3333 28.8052V21.194C11.3329 21.1656 11.3388 21.1375 11.3506 21.112C11.3624 21.0866 11.3797 21.0645 11.4011 21.0477C11.4224 21.0308 11.4472 21.0197 11.4734 21.0151C11.4996 21.0106 11.5264 21.0129 11.5516 21.0217C11.934 21.1504 12.331 21.2222 12.7316 21.2351C12.7808 21.2351 12.8275 21.2373 12.8733 21.2373C13.6438 21.2392 14.402 21.0296 15.0754 20.6284C15.1264 20.598 15.1837 20.582 15.2421 20.582C15.3004 20.582 15.3578 20.598 15.4087 20.6284C16.082 21.0296 16.84 21.2392 17.6104 21.2373C18.3765 21.2385 19.1298 21.0263 19.7963 20.6217C19.8477 20.5905 19.9058 20.5741 19.9648 20.5741C20.0239 20.5741 20.082 20.5905 20.1334 20.6217C20.8099 21.0278 21.5729 21.24 22.3484 21.2377C23.1196 21.2383 23.8776 21.0228 24.5472 20.6127C24.599 20.5812 24.6576 20.5645 24.7172 20.5645C24.7768 20.5645 24.8354 20.5812 24.8872 20.6127C25.5567 21.0228 26.3147 21.2383 27.086 21.2377C27.1314 21.2377 27.1772 21.2377 27.2264 21.2355H27.2289C27.6436 21.2222 28.0543 21.1457 28.4489 21.0083C28.4739 20.9996 28.5004 20.9974 28.5263 21.0018C28.5523 21.0063 28.5769 21.0172 28.5981 21.0337C28.6194 21.0503 28.6366 21.0719 28.6486 21.097C28.6605 21.1221 28.6668 21.1498 28.6668 21.1779V28.8052C28.6668 28.8525 28.6844 28.8979 28.7156 28.9314C28.7469 28.9649 28.7893 28.9837 28.8335 28.9837H29.3126C29.6727 28.9837 29.9835 29.2801 29.9993 29.6659C30.0034 29.7623 29.9892 29.8585 29.9575 29.9489C29.9259 30.0392 29.8775 30.1218 29.8153 30.1915C29.7531 30.2613 29.6783 30.3168 29.5955 30.3548C29.5127 30.3927 29.4235 30.4123 29.3335 30.4123H10.6874C10.3274 30.4123 10.0166 30.1159 10.0008 29.7302C9.9967 29.6338 10.0109 29.5375 10.0426 29.4471C10.0742 29.3568 10.1226 29.2742 10.1848 29.2045C10.247 29.1347 10.3218 29.0792 10.4046 29.0413C10.4874 29.0033 10.5765 28.9837 10.6666 28.9837ZM21.3334 25.948C21.3334 25.9954 21.3509 26.0408 21.3822 26.0743C21.4135 26.1078 21.4559 26.1266 21.5001 26.1266H25.1668C25.211 26.1266 25.2534 26.1078 25.2846 26.0743C25.3159 26.0408 25.3334 25.9954 25.3334 25.948V23.0909C25.3334 22.9488 25.2808 22.8125 25.187 22.7121C25.0932 22.6116 24.966 22.5552 24.8334 22.5552H21.8334C21.7008 22.5552 21.5736 22.6116 21.4798 22.7121C21.3861 22.8125 21.3334 22.9488 21.3334 23.0909V25.948ZM14.8333 28.9837H17.8333C17.8776 28.9837 17.9199 28.9649 17.9512 28.9314C17.9825 28.8979 18 28.8525 18 28.8052V23.0909C18 22.9488 17.9473 22.8125 17.8536 22.7121C17.7598 22.6116 17.6326 22.5552 17.5 22.5552H15.1666C15.034 22.5552 14.9069 22.6116 14.8131 22.7121C14.7193 22.8125 14.6666 22.9488 14.6666 23.0909V28.8052C14.6666 28.8525 14.6842 28.8979 14.7155 28.9314C14.7467 28.9649 14.7891 28.9837 14.8333 28.9837ZM10.1428 16.5855L11.9312 12.1886C12.3995 11.1096 13.4691 10.4123 14.6562 10.4123H25.3459C26.533 10.4123 27.6026 11.1096 28.071 12.1886L29.8593 16.5855C30.2343 17.452 29.7389 18.3418 29.7385 18.3422L29.7268 18.3623C29.7064 18.3971 29.6702 18.4516 29.6481 18.4864C29.646 18.4891 29.6443 18.4922 29.6422 18.4953L29.4339 18.7654C29.4261 18.7756 29.4178 18.7853 29.4089 18.7944L29.2006 19.0101L29.1831 19.0261C29.0607 19.1385 28.9298 19.2397 28.7918 19.3288V19.331C28.3383 19.6254 27.8217 19.7894 27.2918 19.8074H27.1889C26.3871 19.809 25.6145 19.485 25.0268 18.9007L25.013 18.8868C24.9516 18.8249 24.8705 18.7904 24.7861 18.7904C24.7018 18.7904 24.6206 18.8249 24.5593 18.8868L24.5455 18.9007C23.9515 19.484 23.175 19.8076 22.3692 19.8076C21.5635 19.8076 20.787 19.484 20.193 18.9007C20.1313 18.8396 20.0505 18.8056 19.9665 18.8056C19.8825 18.8056 19.8017 18.8396 19.74 18.9007C19.1478 19.4822 18.3741 19.8056 17.5708 19.8075C16.7675 19.8094 15.9925 19.4896 15.3979 18.911C15.3372 18.8507 15.2575 18.8172 15.1748 18.8172C15.092 18.8172 15.0123 18.8507 14.9516 18.911C14.3564 19.4932 13.578 19.8133 12.772 19.8074H12.6683C12.1517 19.7867 11.649 19.6221 11.2099 19.3297C11.1704 19.3043 11.1324 19.2775 11.0941 19.2507C10.798 19.0368 10.5402 18.7675 10.3333 18.4556L10.2608 18.3382C10.2535 18.3263 10.2469 18.3138 10.2408 18.3007C10.1716 18.1498 9.80075 17.3739 10.1428 16.5855Z" fill="white"/>
</svg>
